<?xml version="1.0" standalone="no"?>
<!DOCTYPE svg PUBLIC "-//W3C//DTD SVG 20010904//EN"
 "http://www.w3.org/TR/2001/REC-SVG-20010904/DTD/svg10.dtd">
<svg version="1.0" xmlns="http://www.w3.org/2000/svg"
 width="334.000000pt" height="200.000000pt" viewBox="0 0 334.000000 200.000000"
 preserveAspectRatio="xMidYMid meet">

<g transform="translate(0.000000,200.000000) scale(0.100000,-0.100000)"
fill="#000000" stroke="none">
<path d="M1406 1425 c-3 -9 -6 -31 -6 -49 l0 -33 -72 -2 c-65 -1 -76 -4 -95
-27 -23 -25 -23 -26 -23 -373 0 -324 1 -349 18 -364 17 -15 62 -17 445 -17
374 0 427 2 441 16 14 13 16 60 16 364 0 347 0 349 -22 375 -20 23 -31 26 -95
28 l-73 2 0 35 c0 75 -47 83 -52 8 l-3 -43 -215 0 -215 0 -5 45 c-5 47 -31 67
-44 35z m9 -205 c19 -16 35 -4 35 26 0 31 14 31 28 -1 26 -57 -31 -105 -83
-71 -27 18 -32 45 -13 79 l13 22 3 -22 c2 -12 9 -27 17 -33z m475 26 c0 -47
45 -41 52 7 l3 22 14 -23 c16 -30 7 -68 -20 -83 -49 -26 -101 25 -77 76 14 32
28 32 28 1z m190 -391 l0 -245 -410 0 -410 0 0 245 0 245 410 0 410 0 0 -245z"/>
<path d="M1510 995 l0 -45 65 0 65 0 0 45 0 45 -65 0 -65 0 0 -45z"/>
<path d="M1702 998 l3 -43 63 -3 62 -3 0 46 0 45 -66 0 -65 0 3 -42z"/>
<path d="M1890 995 l0 -45 65 0 65 0 0 45 0 45 -65 0 -65 0 0 -45z"/>
<path d="M1322 858 l3 -43 63 -3 62 -3 0 46 0 45 -66 0 -65 0 3 -42z"/>
<path d="M1510 855 l0 -46 63 3 62 3 3 43 3 42 -65 0 -66 0 0 -45z"/>
<path d="M1702 858 l3 -43 60 0 60 0 3 43 3 42 -66 0 -66 0 3 -42z"/>
<path d="M1890 855 l0 -45 65 0 65 0 0 45 0 45 -65 0 -65 0 0 -45z"/>
<path d="M1320 715 l0 -46 63 3 62 3 3 43 3 42 -65 0 -66 0 0 -45z"/>
<path d="M1512 718 l3 -43 63 -3 62 -3 0 46 0 45 -66 0 -65 0 3 -42z"/>
<path d="M1702 718 l3 -43 63 -3 62 -3 0 46 0 45 -66 0 -65 0 3 -42z"/>
</g>
</svg>
